M48
;METRIC
; Intense Scrap prototype drill file
T1C1.000
T2C1.200
%
T1
X10.000Y10.000
X10.000Y15.000
X10.000Y20.000
X10.000Y25.000
X10.000Y30.000
X10.000Y35.000
X30.000Y10.000
X30.000Y15.000
X30.000Y20.000
X30.000Y25.000
X30.000Y30.000
X30.000Y35.000
X40.000Y8.000
X45.000Y8.000
X50.000Y8.000
X55.000Y8.000
X60.000Y8.000
X65.000Y8.000
X42.000Y22.000
X46.000Y22.000
X52.000Y22.000
X56.000Y22.000
X62.000Y22.000
X66.000Y22.000
T2
X10.000Y37.000
X15.000Y37.000
M30
