%FSLAX35Y35*%
%MOMM*%
%ADD10C,0.500*%
%ADD11C,2.000*%
%ADD12C,2.500*%
%ADD13C,1.000*%
D10*
X010000Y010000D02*
X040000Y008000D01*
D10*
X010000Y015000D02*
X045000Y008000D01*
D10*
X010000Y020000D02*
X050000Y008000D01*
D10*
X010000Y025000D02*
X055000Y008000D01*
D10*
X030000Y010000D02*
X060000Y008000D01*
D10*
X030000Y015000D02*
X065000Y008000D01*
D10*
X030000Y020000D02*
X042000Y022000D01*
D10*
X030000Y025000D02*
X052000Y022000D01*
D10*
X030000Y030000D02*
X062000Y022000D01*
D10*
X030000Y035000D02*
X063000Y032000D01*
D13*
X010000Y010000D03*
D13*
X010000Y015000D03*
D13*
X010000Y020000D03*
D13*
X010000Y025000D03*
D13*
X010000Y030000D03*
D13*
X010000Y035000D03*
D13*
X030000Y010000D03*
D13*
X030000Y015000D03*
D13*
X030000Y020000D03*
D13*
X030000Y025000D03*
D13*
X030000Y030000D03*
D13*
X030000Y035000D03*
D13*
X040000Y008000D03*
D13*
X045000Y008000D03*
D13*
X050000Y008000D03*
D13*
X055000Y008000D03*
D13*
X060000Y008000D03*
D13*
X065000Y008000D03*
D13*
X042000Y022000D03*
D13*
X046000Y022000D03*
D13*
X052000Y022000D03*
D13*
X056000Y022000D03*
D13*
X062000Y022000D03*
D13*
X066000Y022000D03*
D12*
X010000Y037000D03*
D12*
X015000Y037000D03*
M02*
